#!OML:ASF X:\für Bonn\!DataBase\2005_08_11_Bastian_Final\c3d\Bastian.ASF
:FULLY-SPECIFIED
:DEGREES
32
root 1.29225 21.0997 21.689 718.497 8.48751 -3.00547
lowerback -3.5628 -4.20456 -3.10629
upperback 1.58856 -5.43513 -0.489024
thorax 3.87415 -2.77191 0.84287
lowerneck -1.13333 -2.32056 -1.12577
upperneck 5.88368 -3.53628 8.04513
head 2.26318 -1.60121 2.71953
rclavicle -3.78561e-014 7.95139e-015
rhumerus -39.0498 25.932 -83.9951
rradius 102.497
rwrist 0.40974
rhand -16.1334 20.4349
rfingers 7.12502
rthumb 10.0715 -9.30412
lclavicle -3.78561e-014 7.95139e-015
lhumerus -25.1032 1.50806 69.7131
lradius 116.559
lwrist 215.403
lhand -33.5164 22.4245
lfingers 7.12502
lthumb -6.71273 52.2981
rfemur -6.83109 -2.10912 27.5756
rtibia 52.9213
rfoot 8.25916 1.22693
rtoes -50.7722
lfemur -12.2374 2.88287 -11.2675
ltibia 60.1276
lfoot 17.3889 -7.15644
ltoes -36.2288
33
root 1.28598 21.2736 21.833 718.138 7.88391 -2.95524
lowerback -2.12774 -3.96397 -2.80943
upperback 1.84475 -5.17295 -0.568353
thorax 3.28522 -2.63369 0.716803
lowerneck -1.42081 -2.37695 -0.906682
upperneck 5.89931 -3.60871 7.79326
head 2.31123 -1.63154 2.59009
rclavicle 5.89148e-014 1.43125e-014
rhumerus -38.7903 25.4083 -84.1094
rradius 101.921
rwrist 0.050798
rhand -15.8266 20.3961
rfingers 7.12502
rthumb 10.3675 -9.32828
lclavicle 5.89148e-014 1.43125e-014
lhumerus -25.9647 1.67552 69.8432
lradius 116.289
lwrist 214.934
lhand -33.5856 20.9493
lfingers 7.12502
lthumb -6.77956 50.8208
rfemur -7.94555 -3.12876 27.0732
rtibia 54.7777
rfoot 7.53997 -1.1901
rtoes -50.0055
lfemur -12.5259 4.03888 -11.5652
ltibia 60.2785
lfoot 17.1275 -5.29595
ltoes -37.2657
34
root 1.27893 21.4446 21.9758 717.842 7.27579 -2.87375
lowerback -0.753172 -3.75807 -2.55697
upperback 2.11619 -4.94513 -0.634021
thorax 2.75599 -2.51383 0.612333
lowerneck -1.82632 -2.40421 -0.759881
upperneck 5.94457 -3.645 7.55774
head 2.39108 -1.64229 2.48031
rclavicle -5.70512e-014 1.43125e-014
rhumerus -38.4115 24.8963 -84.2311
rradius 101.208
rwrist 0.105363
rhand -15.7907 20.4551
rfingers 7.12502
rthumb 10.4021 -9.2676
lclavicle -5.70512e-014 1.43125e-014
lhumerus -26.8344 1.85648 69.959
lradius 115.562
lwrist 214.606
lhand -33.4613 19.9165
lfingers 7.12502
lthumb -6.65955 49.7918
rfemur -9.14459 -4.05601 26.5773
rtibia 56.5279
rfoot 6.55982 -3.52141
rtoes -48.8396
lfemur -12.8632 5.12861 -11.9388
ltibia 60.248
lfoot 16.782 -3.44444
ltoes -37.862
35
root 1.27387 21.6032 22.1157 717.67 6.67578 -2.8429
lowerback 0.475721 -3.57596 -2.18815
upperback 2.36555 -4.7385 -0.712623
thorax 2.27879 -2.40189 0.41242
lowerneck -2.1693 -2.42287 -0.687724
upperneck 5.94763 -3.67078 7.43789
head 2.45061 -1.64933 2.4238
rclavicle 2.86498e-014 -1.74931e-014
rhumerus -37.9751 24.4435 -84.4648
rradius 100.203
rwrist 0.126936
rhand -15.9898 20.4956
rfingers 7.12502
rthumb 10.21 -9.23663
lclavicle 2.86498e-014 -1.74931e-014
lhumerus -27.9344 1.9791 70.0379
lradius 114.802
lwrist 214.119
lhand -33.2869 19.1535
lfingers 7.12502
lthumb -6.49117 49.034
rfemur -10.5164 -4.88409 26.2018
rtibia 58.1319
rfoot 5.47407 -5.45484
rtoes -47.7537
lfemur -13.3631 6.16281 -12.284
ltibia 60.1185
lfoot 16.1915 -1.8295
ltoes -37.4323
36
root 1.2721 21.7493 22.2548 717.61 6.13622 -2.89499
lowerback 1.53453 -3.4478 -1.76853
upperback 2.61431 -4.59169 -0.704558
thorax 1.90464 -2.32056 0.253741
lowerneck -2.46759 -2.4191 -0.772427
upperneck 5.88839 -3.65784 7.37082
head 2.48522 -1.64181 2.41472
rclavicle -4.55714e-014 -2.38542e-015
rhumerus -37.4172 24.135 -84.6257
rradius 98.9156
rwrist 0.0529747
rhand -15.8932 20.4179
rfingers 7.12502
rthumb 10.3032 -9.30973
lclavicle -4.55714e-014 -2.38542e-015
lhumerus -28.9912 2.15891 70.2259
lradius 113.743
lwrist 213.515
lhand -32.8632 18.8959
lfingers 7.12502
lthumb -6.0821 48.7886
rfemur -11.9881 -5.64044 25.9665
rtibia 59.5373
rfoot 4.13753 -7.01387
rtoes -46.512
lfemur -14.0324 7.13838 -12.5644
ltibia 59.9285
lfoot 15.3128 -0.636418
ltoes -36.2496
37
root 1.27154 21.8782 22.3944 717.608 5.64158 -2.95102
lowerback 2.51494 -3.34072 -1.37044
upperback 2.81581 -4.463 -0.676941
thorax 1.53232 -2.24886 0.119178
lowerneck -2.60388 -2.42037 -0.971894
upperneck 5.81115 -3.64876 7.40603
head 2.49047 -1.63981 2.46189
rclavicle -1.56046e-014 -1.11319e-014
rhumerus -36.8817 23.8714 -84.7739
rradius 97.38
rwrist 0.191747
rhand -16.0494 20.4749
rfingers 7.12502
rthumb 10.1525 -9.2601
lclavicle -1.56046e-014 -1.11319e-014
lhumerus -30.1635 2.25684 70.527
lradius 112.418
lwrist 212.579
lhand -32.0307 19.6598
lfingers 7.12502
lthumb -5.27838 49.574
rfemur -13.4693 -6.28519 25.8077
rtibia 60.7445
rfoot 2.6579 -8.09855
rtoes -45.3784
lfemur -14.7749 8.00169 -12.8672
ltibia 59.6762
lfoot 14.2279 0.248399
ltoes -34.788
38
root 1.26987 21.9932 22.5401 717.52 5.24727 -3.02486
lowerback 3.49725 -3.25871 -1.02347
upperback 3.04534 -4.36009 -0.617888
thorax 1.19714 -2.19176 0.0405474
lowerneck -2.53269 -2.42354 -1.17708
upperneck 5.55897 -3.62736 7.43404
head 2.39858 -1.64 2.50814
rclavicle -6.2965e-014 -7.15625e-015
rhumerus -36.3564 23.6136 -84.8613
rradius 95.6771
rwrist 0.420501
rhand -16.4112 20.6709
rfingers 7.12502
rthumb 9.80341 -9.08093
lclavicle -6.2965e-014 -7.15625e-015
lhumerus -31.2881 2.31011 70.9022
lradius 110.957
lwrist 211.517
lhand -31.5605 19.7734
lfingers 7.12502
lthumb -4.8244 49.6985
rfemur -14.764 -6.82916 25.7191
rtibia 61.7433
rfoot 1.26592 -8.38168
rtoes -45.0069
lfemur -15.4043 8.74118 -13.1342
ltibia 59.3306
lfoot 13.1935 0.726577
ltoes -33.1337
39
root 1.26558 22.0928 22.6911 717.252 4.9027 -3.11831
lowerback 4.5899 -3.16876 -0.698916
upperback 3.32845 -4.23999 -0.569865
thorax 0.858913 -2.12654 -0.0358181
lowerneck -2.32313 -2.44878 -1.23606
upperneck 5.16421 -3.62712 7.37426
head 2.22909 -1.65542 2.49742
rclavicle 3.79182e-014 -1.03368e-014
rhumerus -35.9048 23.307 -84.9296
rradius 93.9102
rwrist 0.640862
rhand -16.8433 20.9407
rfingers 7.12502
rthumb 9.38654 -8.83031
lclavicle 3.79182e-014 -1.03368e-014
lhumerus -32.3011 2.27683 71.3073
lradius 109.448
lwrist 210.279
lhand -31.1126 19.7904
lfingers 7.12502
lthumb -4.3919 49.7249
rfemur -15.7806 -7.30165 25.6714
rtibia 62.5701
rfoot 0.0991176 -7.96921
rtoes -45.4612
lfemur -15.7633 9.35935 -13.3283
ltibia 58.8397
lfoot 12.2435 0.836627
ltoes -31.6351
40
root 1.26134 22.1818 22.8454 716.923 4.5982 -3.21123
lowerback 5.73971 -3.11758 -0.399842
upperback 3.59524 -4.16503 -0.508722
thorax 0.478257 -2.08435 -0.0821251
lowerneck -2.00575 -2.45165 -1.32053
upperneck 4.68816 -3.5913 7.32035
head 2.0137 -1.65697 2.49516
rclavicle 1.47101e-014 3.18055e-015
rhumerus -35.5462 23.0449 -85.0478
rradius 92.0796
rwrist 0.908058
rhand -17.3016 21.3068
rfingers 7.12502
rthumb 8.9443 -8.48361
lclavicle 1.47101e-014 3.18055e-015
lhumerus -33.2423 2.28056 71.763
lradius 107.539
lwrist 209.084
lhand -30.6679 19.8809
lfingers 7.12502
lthumb -3.96244 49.8238
rfemur -16.6763 -7.73821 25.6275
rtibia 63.2682
rfoot -1.027 -7.24819
rtoes -46.5443
lfemur -15.9908 9.8504 -13.4999
ltibia 58.1814
lfoot 11.3511 0.682597
ltoes -30.2723
41
root 1.25667 22.261 23.0033 716.704 4.28763 -3.27035
lowerback 6.71828 -3.046 -0.157116
upperback 3.8623 -4.05808 -0.453069
thorax 0.199209 -2.02715 -0.117607
lowerneck -1.89465 -2.45735 -1.34455
upperneck 4.34992 -3.57368 7.28035
head 1.88175 -1.65876 2.48576
rclavicle -3.54831e-014 -7.15625e-015
rhumerus -35.1764 22.7107 -85.1712
rradius 90.167
rwrist 1.30846
rhand -17.3244 21.0662
rfingers 7.12502
rthumb 8.9223 -8.72514
lclavicle -3.54831e-014 -7.15625e-015
lhumerus -33.9193 2.23075 72.2017
lradius 105.373
lwrist 207.869
lhand -30.4163 19.4072
lfingers 7.12502
lthumb -3.71946 49.3545
rfemur -17.6822 -8.0752 25.5812
rtibia 63.8786
rfoot -2.01682 -6.34641
rtoes -47.8891
lfemur -16.2591 10.2895 -13.7076
ltibia 57.3437
lfoot 10.6241 0.317704
ltoes -28.8778
42
root 1.25197 22.333 23.1652 716.557 4.00115 -3.32618
lowerback 7.57161 -2.97828 0.11281
upperback 4.13203 -3.94961 -0.424343
thorax -0.00900424 -1.96855 -0.205955
lowerneck -2.03576 -2.4664 -1.40593
upperneck 4.23631 -3.5819 7.37486
head 1.87479 -1.66158 2.52693
rclavicle 1.8487e-014 -3.97569e-015
rhumerus -34.8072 22.3391 -85.3762
rradius 88.1316
rwrist 1.35869
rhand -17.3167 20.868
rfingers 7.12502
rthumb 8.92974 -8.923
lclavicle 1.8487e-014 -3.97569e-015
lhumerus -34.4746 2.11133 72.6058
lradius 102.981
lwrist 206.75
lhand -30.0716 19.0291
lfingers 7.12502
lthumb -3.38661 48.982
rfemur -18.7298 -8.32106 25.5373
rtibia 64.3887
rfoot -2.78671 -5.27301
rtoes -48.6478
lfemur -16.5495 10.6565 -13.9429
ltibia 56.3645
lfoot 10.0092 -0.228524
ltoes -28.1615
43
root 1.24723 22.3928 23.3281 716.551 3.74746 -3.40867
lowerback 8.27579 -2.93134 0.386717
upperback 4.34737 -3.8643 -0.361292
thorax -0.186793 -1.92181 -0.268301
lowerneck -2.17782 -2.47296 -1.4531
upperneck 4.1488 -3.58559 7.40433
head 1.87404 -1.66257 2.54393
rclavicle -3.04141e-014 7.95139e-015
rhumerus -34.4915 21.9759 -85.6384
rradius 85.9985
rwrist 0.966689
rhand -17.4933 21.1717
rfingers 7.12502
rthumb 8.75929 -8.62658
lclavicle -3.04141e-014 7.95139e-015
lhumerus -34.9677 2.04071 73.0161
lradius 100.434
lwrist 205.654
lhand -29.6754 18.4676
lfingers 7.12502
lthumb -3.00396 48.4262
rfemur -19.896 -8.48826 25.543
rtibia 64.7579
rfoot -3.3536 -4.04827
rtoes -49.2399
lfemur -16.9873 10.9807 -14.177
ltibia 55.2962
lfoot 9.554 -0.905912
ltoes -27.8709
44
root 1.24219 22.4327 23.4912 716.648 3.51855 -3.45592
lowerback 8.85829 -2.89367 0.617195
upperback 4.54349 -3.79166 -0.301865
thorax -0.313402 -1.88202 -0.316623
lowerneck -2.14908 -2.48173 -1.12658
upperneck 3.80144 -3.57304 7.09152
head 1.73812 -1.66522 2.37883
rclavicle -2.04748e-014 -7.15625e-015
rhumerus -34.1076 21.545 -85.9028
rradius 83.8504
rwrist 0.607325
rhand -17.6756 21.3695
rfingers 7.12502
rthumb 8.58342 -8.43602
lclavicle -2.04748e-014 -7.15625e-015
lhumerus -35.436 2.01847 73.37
lradius 97.8494
lwrist 204.712
lhand -29.3475 17.8033
lfingers 7.12502
lthumb -2.68734 47.7661
rfemur -21.083 -8.55075 25.5205
rtibia 64.9258
rfoot -3.73282 -2.77889
rtoes -49.776
lfemur -17.5579 11.2344 -14.475
ltibia 54.1927
lfoot 9.29576 -1.61644
ltoes -27.8253
